<svg xmlns="http://www.w3.org/2000/svg" xmlns:xlink="http://www.w3.org/1999/xlink" width="40" zoomAndPan="magnify" viewBox="0 0 30 30.000001" height="40" preserveAspectRatio="xMidYMid meet" version="1.2"><defs><clipPath id="056cb462a2"><path d="M 0.484375 2.902344 L 29.515625 2.902344 L 29.515625 27.230469 L 0.484375 27.230469 Z M 0.484375 2.902344 "/></clipPath><clipPath id="f80da65982"><path d="M 21.464844 25.425781 C 19.429688 25.40625 17.652344 23.742188 17.636719 21.710938 C 17.636719 21.671875 17.632812 21.625 17.625 21.585938 C 18.734375 21.367188 19.675781 21.019531 20.429688 20.535156 C 21.453125 19.878906 22.097656 19 22.351562 17.910156 C 26.359375 18.957031 26.058594 25.140625 21.460938 25.425781 M 14.417969 8.941406 C 14.417969 8.414062 14.550781 7.941406 14.8125 7.515625 C 15.078125 7.09375 15.429688 6.769531 15.867188 6.527344 C 16.308594 6.289062 16.785156 6.171875 17.316406 6.171875 C 17.476562 6.171875 17.617188 6.203125 17.722656 6.269531 C 17.828125 6.332031 17.886719 6.425781 17.886719 6.539062 C 17.886719 6.65625 17.835938 6.765625 17.738281 6.863281 C 16.960938 6.894531 16.359375 7.09375 15.933594 7.457031 C 15.503906 7.816406 15.289062 8.316406 15.289062 8.941406 C 15.289062 9.75 15.605469 10.402344 16.242188 10.894531 C 16.875 11.386719 17.714844 11.636719 18.75 11.636719 C 19.757812 11.636719 20.578125 11.371094 21.214844 10.832031 C 21.847656 10.296875 22.164062 9.609375 22.164062 8.765625 C 22.164062 7.972656 21.9375 7.289062 21.5 6.703125 C 23.234375 5.390625 25.386719 4.613281 27.6875 4.613281 C 27.703125 4.613281 27.71875 4.613281 27.734375 4.613281 C 28.265625 9.007812 25.824219 13.105469 22.101562 14.988281 C 21.949219 14.6875 21.75 14.410156 21.511719 14.15625 C 20.859375 13.480469 19.851562 12.953125 18.480469 12.574219 C 16.996094 12.164062 15.949219 11.679688 15.339844 11.125 C 14.726562 10.574219 14.421875 9.84375 14.421875 8.9375 M 14.210938 19.453125 C 13.65625 19.984375 12.96875 20.246094 12.144531 20.246094 C 11.976562 20.246094 11.84375 20.214844 11.738281 20.148438 C 11.632812 20.085938 11.578125 19.996094 11.578125 19.878906 C 11.578125 19.757812 11.628906 19.652344 11.726562 19.554688 C 12.5 19.523438 13.105469 19.324219 13.53125 18.960938 C 13.960938 18.601562 14.175781 18.105469 14.175781 17.476562 C 14.175781 16.652344 13.847656 15.996094 13.199219 15.507812 C 12.546875 15.019531 11.667969 14.78125 10.5625 14.78125 C 9.773438 14.78125 9.105469 14.976562 8.550781 15.339844 L 8.011719 15.050781 C 8.007812 15.046875 8.003906 15.042969 7.996094 15.039062 C 4.21875 13.179688 1.734375 9.046875 2.265625 4.617188 C 2.28125 4.617188 2.296875 4.617188 2.316406 4.617188 C 4.6875 4.617188 6.902344 5.445312 8.667969 6.832031 C 8.605469 6.90625 8.527344 6.972656 8.464844 7.050781 C 7.847656 7.816406 7.539062 8.691406 7.539062 9.6875 C 7.539062 10.691406 7.828125 11.539062 8.40625 12.234375 C 8.984375 12.925781 9.839844 13.445312 10.980469 13.789062 C 11.984375 14.105469 12.785156 14.425781 13.371094 14.753906 C 13.953125 15.085938 14.378906 15.457031 14.644531 15.882812 C 14.90625 16.304688 15.039062 16.835938 15.039062 17.476562 C 15.039062 18.269531 14.761719 18.929688 14.207031 19.457031 M 8.535156 25.425781 C 4.066406 25.148438 3.65625 19.300781 7.316406 18.007812 C 7.417969 19.199219 8.019531 20.125 9.136719 20.78125 C 9.957031 21.257812 11.035156 21.574219 12.359375 21.734375 C 12.332031 23.753906 10.558594 25.40625 8.535156 25.425781 M 23.171875 16.363281 C 27.574219 14.070312 30.300781 8.761719 29.3125 3.640625 C 29.246094 3.253906 28.921875 2.964844 28.53125 2.941406 C 25.515625 2.699219 22.484375 3.703125 20.144531 5.582031 C 18.925781 4.90625 17.289062 4.5625 15.207031 4.5625 C 13.65625 4.5625 12.300781 4.785156 11.136719 5.230469 C 10.738281 5.382812 10.382812 5.558594 10.050781 5.75 C 7.695312 3.765625 4.574219 2.691406 1.464844 2.941406 C 1.078125 2.964844 0.757812 3.253906 0.6875 3.640625 C -0.300781 8.761719 2.429688 14.070312 6.832031 16.363281 C 4.667969 17.117188 3.113281 19.183594 3.113281 21.597656 C 3.085938 24.820312 5.738281 27.03125 8.53125 27.132812 L 8.53125 27.136719 C 8.546875 27.136719 8.5625 27.136719 8.582031 27.136719 C 9.292969 27.15625 10.011719 27.039062 10.699219 26.765625 C 10.734375 26.753906 10.765625 26.742188 10.796875 26.730469 C 10.929688 26.671875 11.058594 26.613281 11.1875 26.550781 C 11.277344 26.503906 11.367188 26.453125 11.453125 26.402344 C 11.472656 26.390625 11.492188 26.378906 11.515625 26.367188 C 11.519531 26.363281 11.523438 26.363281 11.527344 26.359375 C 13.0625 25.425781 14.042969 23.746094 14.097656 21.855469 C 14.246094 21.859375 14.394531 21.863281 14.550781 21.863281 C 15.023438 21.863281 15.476562 21.84375 15.910156 21.808594 C 15.953125 23.722656 16.9375 25.417969 18.488281 26.359375 C 18.492188 26.363281 18.496094 26.363281 18.496094 26.367188 C 18.515625 26.378906 18.535156 26.390625 18.554688 26.402344 C 18.640625 26.453125 18.730469 26.503906 18.820312 26.550781 C 18.953125 26.613281 19.082031 26.675781 19.210938 26.730469 C 19.246094 26.742188 19.277344 26.753906 19.308594 26.765625 C 19.996094 27.039062 20.71875 27.15625 21.429688 27.136719 C 21.445312 27.136719 21.460938 27.136719 21.476562 27.136719 L 21.476562 27.132812 C 24.273438 27.03125 26.917969 24.820312 26.898438 21.597656 C 26.898438 19.183594 25.34375 17.117188 23.179688 16.363281 "/></clipPath></defs><g id="e5cd8d397a"><g clip-rule="nonzero" clip-path="url(#056cb462a2)"><g clip-rule="nonzero" clip-path="url(#f80da65982)"><path style=" stroke:none;fill-rule:nonzero;fill:#9091c5;fill-opacity:1;" d="M 0.484375 2.902344 L 29.542969 2.902344 L 29.542969 27.132812 L 0.484375 27.132812 Z M 0.484375 2.902344 "/></g></g></g></svg>